<?xml version="1.0" encoding="utf-8"?>
<!-- Generator: Adobe Illustrator 17.0.0, SVG Export Plug-In . SVG Version: 6.00 Build 0)  -->
<!DOCTYPE svg PUBLIC "-//W3C//DTD SVG 1.1//EN" "http://www.w3.org/Graphics/SVG/1.1/DTD/svg11.dtd">
<svg version="1.1" id="Слой_1" xmlns="http://www.w3.org/2000/svg" xmlns:xlink="http://www.w3.org/1999/xlink" x="0px" y="0px"
	 width="312px" height="69.5px" viewBox="0 0 312 69.5" enable-background="new 0 0 312 69.5" xml:space="preserve">
<g>
	<g>
		<path fill="#1A1A1A" d="M272.237,6.224v40.824h-3.077V36.888c-1.795,3.448-4.488,6.169-8.077,8.165
			c-3.591,1.996-7.437,2.994-11.539,2.994c-6.283,0-11.668-2.101-16.154-6.306c-4.488-4.202-6.731-9.238-6.731-15.105
			c0-5.865,2.243-10.901,6.731-15.104c4.486-4.203,9.871-6.306,16.154-6.306c4.101,0,8.029,1.03,11.779,3.085
			c3.75,2.057,6.361,4.778,7.836,8.164V6.224H272.237z M229.736,26.727c0,5.081,1.971,9.481,5.913,13.201
			c3.943,3.719,8.621,5.579,14.039,5.579c5.416,0,10.048-1.86,13.894-5.579c3.846-3.72,5.769-8.134,5.769-13.246
			c0-5.11-1.94-9.54-5.817-13.29c-3.88-3.75-8.51-5.625-13.895-5.625c-5.385,0-10.048,1.89-13.991,5.67
			C231.707,17.217,229.736,21.647,229.736,26.727z"/>
		<path fill="#1A1A1A" d="M249.544,48.547c-6.386,0-11.936-2.167-16.496-6.441c-4.571-4.28-6.889-9.485-6.889-15.47
			c0-5.983,2.318-11.188,6.889-15.469c4.561-4.274,10.111-6.441,16.496-6.441c4.167,0,8.21,1.059,12.019,3.146
			c3.125,1.714,5.504,3.911,7.096,6.548V5.725h4.077v41.824h-4.077V38.74c-1.794,2.772-4.254,5.037-7.333,6.75
			C257.675,47.519,253.711,48.547,249.544,48.547z M249.544,5.726c-6.123,0-11.442,2.076-15.813,6.17
			c-4.361,4.085-6.573,9.044-6.573,14.74c0,5.697,2.211,10.656,6.573,14.74c4.369,4.095,9.689,6.171,15.813,6.171
			c3.995,0,7.796-0.986,11.296-2.932c3.486-1.938,6.136-4.616,7.876-7.959l0.943-1.813v11.705h2.077V6.725h-2.077v12.15l-0.958-2.2
			c-1.423-3.267-3.986-5.933-7.618-7.925C257.423,6.743,253.541,5.726,249.544,5.726z M249.688,46.007
			c-5.522,0-10.36-1.923-14.382-5.715c-4.028-3.801-6.07-8.365-6.07-13.564c0-5.197,2.041-9.79,6.067-13.651
			c4.021-3.854,8.845-5.809,14.337-5.809s10.284,1.939,14.243,5.765c3.961,3.832,5.969,8.424,5.969,13.65
			c0,5.228-1.992,9.806-5.921,13.605C260.004,44.083,255.212,46.007,249.688,46.007z M249.64,8.267
			c-5.226,0-9.816,1.861-13.645,5.531c-3.822,3.666-5.759,8.016-5.759,12.93c0,4.914,1.937,9.233,5.756,12.837
			c3.83,3.612,8.438,5.443,13.696,5.443c5.256,0,9.814-1.83,13.547-5.438c3.727-3.604,5.617-7.94,5.617-12.887
			c0-4.944-1.906-9.295-5.665-12.931C259.422,10.112,254.864,8.267,249.64,8.267z"/>
	</g>
	<g>
		<path fill="#1A1A1A" d="M285.738,30.386c-1.396,0-2.627,0.498-3.694,1.491c-1.066,0.994-1.6,2.149-1.6,3.466v11.181h-1.264V29.753
			h1.264v2.497c0.474-0.844,1.211-1.54,2.212-2.086c1.001-0.547,2.12-0.821,3.358-0.821s2.423,0.399,3.555,1.193v1.491
			C288.411,30.933,287.134,30.386,285.738,30.386z"/>
		<path fill="#1A1A1A" d="M281.445,47.524h-3.265V28.753h3.265v0.985c0.23-0.16,0.474-0.311,0.732-0.452
			c1.145-0.626,2.436-0.943,3.837-0.943c1.439,0,2.829,0.462,4.129,1.374l0.426,0.298v4.331l-1.687-1.591
			c-0.975-0.921-2.004-1.368-3.146-1.368c-1.144,0-2.129,0.4-3.012,1.223c-0.862,0.803-1.281,1.697-1.281,2.734V47.524z"/>
	</g>
	<g>
		<path fill="#1A1A1A" d="M302.79,44.831v1.044c-1.87,0-3.463-0.591-4.78-1.771c-1.317-1.179-1.975-2.689-1.975-4.528V22.133h1.264
			v6.784h5.451v1.044h-5.451v9.616c0,1.515,0.533,2.771,1.6,3.763C299.965,44.335,301.262,44.831,302.79,44.831z"/>
		<path fill="#1A1A1A" d="M303.79,46.875h-1c-2.115,0-3.948-0.682-5.447-2.026c-1.531-1.371-2.308-3.145-2.308-5.272V21.133h3.264
			v6.784h5.452v3.043h-5.452v8.616c0,1.237,0.419,2.229,1.281,3.031c0.884,0.824,1.933,1.224,3.21,1.224h1V46.875z"/>
	</g>
</g>
<g>
	<path fill="#1A1A1A" d="M38.283,40.509c0,5.795-3.249,8.233-6.119,8.233c-1.137,0-2.221-0.38-2.925-1.137
		c-1.3-1.354-1.896-3.629-1.896-7.366c0-1.841,0.325-5.633,0.812-10.832c-2.491-1.191-5.47-1.787-8.665-1.787
		c-1.625,0-3.141,0.162-4.549,0.379c-0.921,3.196-1.462,6.77-1.625,9.64c3.629,0.108,7.149-1.57,7.149-4.441
		c0-0.704,0.433-1.191,1.137-1.191c0.65,0,1.191,0.487,1.191,1.191c0,4.062-4.333,6.77-9.532,6.662c0,3.141,0.488,5.47,1.192,6.444
		c0.217,0.217,0.325,0.488,0.325,0.759c0,0.65-0.542,1.191-1.246,1.191c-1.516,0-2.708-3.249-2.654-8.665
		c-3.953-0.812-5.741-3.141-5.741-5.849c0-3.574,3.087-6.283,7.907-7.582c2.166-6.878,5.849-12.944,11.157-12.944
		c1.787,0,3.195,0.542,4.224,1.625c1.679,1.625,2.437,4.549,2.437,9.044c0,1.354-0.054,2.762-0.217,4.278
		C35.683,31.032,38.283,35.69,38.283,40.509z M7.575,33.74c0,1.625,0.867,2.924,3.358,3.628c0.108-2.437,0.704-5.849,1.462-8.665
		C9.904,29.624,7.575,31.357,7.575,33.74z M15.807,25.616c1.137-0.162,2.383-0.27,3.683-0.27c3.195,0,6.174,0.596,8.828,1.679
		c0.108-1.084,0.163-2.167,0.163-3.196c0-3.737-0.596-6.228-1.787-7.419c-0.596-0.596-1.408-0.975-2.491-0.975
		C20.573,15.434,17.757,20.038,15.807,25.616z M32.271,46.575c2.221,0,3.629-2.708,3.629-6.066c0-4.17-2.22-7.69-5.415-9.856
		c-0.325,3.141-0.759,7.419-0.759,9.586C29.726,43.759,30.213,46.575,32.271,46.575z"/>
	<path fill="#1A1A1A" d="M57.072,36.989c0,3.791-0.867,8.07-1.246,9.911c-0.163,1.083-1.029,1.083-1.191,1.083
		c-0.704,0-1.246-0.542-1.246-1.246c0-0.054,0-0.108,0.054-0.217c0.433-1.895,1.192-6.012,1.192-9.531
		c0-2.871-0.542-4.929-1.95-4.929c-2.925,0-6.391,6.12-8.124,15.056c-0.108,0.542-0.541,0.921-1.137,0.921
		c-0.704,0-1.137-0.541-1.137-1.245c0-0.65,0.975-4.604,1.191-5.471c0.596-2.437,1.083-4.819,1.137-6.661
		c-0.054-1.625-0.27-2.545-0.975-3.249c-0.163-0.271-0.27-0.542-0.27-0.867c0-0.596,0.541-1.137,1.191-1.137
		c1.083,0,2.545,2.004,2.329,5.254c1.462-3.358,3.574-5.091,6.012-5.091C54.148,29.57,57.072,30.328,57.072,36.989z"/>
	<path fill="#1A1A1A" d="M76.621,34.878c0,2.057-0.325,4.441-0.704,6.499c-0.217,1.408-0.542,3.249-0.542,4.332
		c0,0.325,0.054,0.542,0.108,0.704c0.108,0.217,0.217,0.38,0.217,0.65c0,0.596-0.596,1.137-1.246,1.137
		c-1.191,0-1.516-1.516-1.516-2.6c0-1.137,0.325-2.654,0.596-4.604c0.325-2.004,0.704-4.115,0.704-6.012
		c0-2.599-1.408-3.574-2.816-3.574c-4.116,0-7.203,6.282-7.203,11.211c0,2.004,0.921,3.411,2.329,3.411
		c1.463,0,2.545-1.3,3.087-2.762c0.163-0.433,0.596-0.704,1.029-0.704c0.704,0,1.137,0.542,1.137,1.191
		c0,0.921-1.733,4.55-5.632,4.55c-2.167,0-4.387-1.625-4.387-5.686c0-5.633,3.899-13.486,9.857-13.486
		C74.726,29.137,76.621,31.14,76.621,34.878z"/>
	<path fill="#1A1A1A" d="M86.043,41.647c0,0.921-0.758,1.083-1.083,1.029c-0.325-0.054-0.487-0.162-0.867-0.162
		c-1.029,0-1.3,0.812-1.3,1.57c0,1.3,1.571,2.6,3.52,2.6s4.008-1.137,4.008-3.574c0-1.3-0.65-2.817-3.087-4.116
		c-1.733-0.921-3.954-2.383-3.954-5.091c0-2.22,1.787-4.549,5.145-4.549c3.25,0,4.495,2.329,4.495,3.249
		c0,0.704-0.541,1.246-1.245,1.246c-0.325,0-0.867-0.271-0.975-0.705c-0.163-0.541-0.921-1.732-2.329-1.732
		c-1.733,0-2.708,1.083-2.708,2.491c0,1.029,0.487,1.679,2.654,2.979c2.653,1.57,4.441,3.141,4.441,5.903
		c0,3.358-2.383,5.849-6.499,5.849c-3.087,0-5.903-1.788-5.903-4.495c0-2.275,1.679-3.9,3.737-3.9
		C85.068,40.239,86.043,40.564,86.043,41.647z"/>
	<path fill="#1A1A1A" d="M103.101,48.417c-0.054,0-0.325-0.055-0.379-0.055c-2.708-0.433-4.008-2.654-4.008-6.824
		c0-2.599,0.325-5.633,1.354-9.748c-1.571,0-2.166,0.27-2.924,0.27c-0.379,0-0.758-0.325-0.758-0.921
		c0-1.516,2.274-1.57,4.224-1.625c0.433-1.787,1.083-4.278,1.679-6.445c0.163-0.487,0.596-0.812,1.083-0.866
		c0.704,0,1.245,0.433,1.245,1.083c0,0.217-0.054,0.487-0.108,0.596c-0.541,1.625-1.245,4.495-1.516,5.687
		c0.758,0,1.841,0.054,3.304,0.108c0.596,0.108,1.192,0.542,1.192,1.137c0,0.65-0.433,1.084-1.029,1.084
		c-1.029,0-2.871-0.108-3.9-0.163c-0.974,3.466-1.462,6.878-1.462,9.641c0,4.278,1.571,4.549,2.112,4.657
		c0.596,0,1.083,0.542,1.083,1.137C104.292,47.821,103.751,48.362,103.101,48.417z"/>
	<path fill="#1A1A1A" d="M123.788,34.878c0,2.057-0.325,4.441-0.704,6.499c-0.217,1.408-0.542,3.249-0.542,4.332
		c0,0.325,0.054,0.542,0.108,0.704c0.108,0.217,0.217,0.38,0.217,0.65c0,0.596-0.596,1.137-1.246,1.137
		c-1.191,0-1.516-1.516-1.516-2.6c0-1.137,0.325-2.654,0.596-4.604c0.325-2.004,0.704-4.115,0.704-6.012
		c0-2.599-1.408-3.574-2.816-3.574c-4.116,0-7.203,6.282-7.203,11.211c0,2.004,0.921,3.411,2.329,3.411
		c1.463,0,2.545-1.3,3.087-2.762c0.163-0.433,0.596-0.704,1.029-0.704c0.704,0,1.137,0.542,1.137,1.191
		c0,0.921-1.733,4.55-5.632,4.55c-2.167,0-4.387-1.625-4.387-5.686c0-5.633,3.899-13.486,9.856-13.486
		C121.892,29.137,123.788,31.14,123.788,34.878z"/>
	<path fill="#1A1A1A" d="M133.21,41.647c0,0.921-0.759,1.083-1.084,1.029c-0.325-0.054-0.487-0.162-0.866-0.162
		c-1.029,0-1.3,0.812-1.3,1.57c0,1.3,1.57,2.6,3.52,2.6s4.008-1.137,4.008-3.574c0-1.3-0.65-2.817-3.087-4.116
		c-1.733-0.921-3.953-2.383-3.953-5.091c0-2.22,1.787-4.549,5.145-4.549c3.249,0,4.495,2.329,4.495,3.249
		c0,0.704-0.542,1.246-1.246,1.246c-0.324,0-0.866-0.271-0.974-0.705c-0.163-0.541-0.921-1.732-2.329-1.732
		c-1.733,0-2.708,1.083-2.708,2.491c0,1.029,0.487,1.679,2.654,2.979c2.654,1.57,4.441,3.141,4.441,5.903
		c0,3.358-2.383,5.849-6.5,5.849c-3.086,0-5.903-1.788-5.903-4.495c0-2.275,1.679-3.9,3.737-3.9
		C132.234,40.239,133.21,40.564,133.21,41.647z"/>
	<path fill="#1A1A1A" d="M149.347,31.086c0,0.054,0,0.162-0.054,0.27c-0.974,3.9-2.004,10.94-2.329,16.085
		c-0.055,0.65-0.542,1.137-1.191,1.137c-0.705,0-1.246-0.542-1.246-1.246c0-0.704,0.812-10.127,2.437-16.572
		c0.108-0.65,0.812-1.029,1.463-0.867C148.968,30.057,149.347,30.544,149.347,31.086z M151.838,22.854l-2.167,1.517l3.304,2.112
		l-4.008-0.65l-1.516,2.979l0.055-3.141l-2.708-0.217l2.654-1.516l-0.27-2.492l1.625,1.788L151.838,22.854z"/>
	<path fill="#1A1A1A" d="M157.361,31.032c-0.433,2.329-1.191,6.175-1.191,9.641c0,1.57,0.217,5.036,2.058,5.036
		c3.303,0,7.365-8.449,7.311-15.002c0-0.649,0.596-1.137,1.246-1.137c0.649,0,1.083,0.541,1.083,1.191
		c0,2.437-0.379,7.745-0.542,10.29c-0.162,2.275-0.541,6.715-1.949,11.373c1.787,1.029,3.141,2.817,3.141,4.875
		c0,0.649-0.542,1.191-1.192,1.191c-0.649,0-1.137-0.542-1.137-1.191c0-1.517-1.192-2.33-1.679-2.545
		c-2.383,6.119-7.691,10.019-12.51,10.019c-2.654,0-5.037-1.3-5.037-4.604c0-5.578,6.987-9.098,12.673-9.098
		c1.246,0,2.491,0.162,3.466,0.487c0.866-2.708,1.678-7.095,2.004-10.398c-1.354,3.791-4.224,6.932-6.878,6.932
		c-3.358,0-4.495-3.629-4.495-7.419c0-3.737,0.812-7.853,1.191-9.857c0.108-0.379,0.27-1.245,1.3-1.245
		c0.65,0,1.192,0.541,1.192,1.245L157.361,31.032z M162.452,53.616c-0.758-0.217-1.895-0.325-2.816-0.325
		c-4.495,0-10.236,2.871-10.236,6.715c0,1.733,1.463,2.545,2.925,2.545C156.061,62.552,160.34,59.032,162.452,53.616z"/>
	<path fill="#1A1A1A" d="M186.713,34.878c0,2.057-0.324,4.441-0.704,6.499c-0.217,1.408-0.541,3.249-0.541,4.332
		c0,0.325,0.054,0.542,0.108,0.704c0.108,0.217,0.216,0.38,0.216,0.65c0,0.596-0.596,1.137-1.245,1.137
		c-1.192,0-1.516-1.516-1.516-2.6c0-1.137,0.324-2.654,0.596-4.604c0.324-2.004,0.704-4.115,0.704-6.012
		c0-2.599-1.408-3.574-2.817-3.574c-4.115,0-7.203,6.282-7.203,11.211c0,2.004,0.921,3.411,2.329,3.411
		c1.463,0,2.545-1.3,3.087-2.762c0.162-0.433,0.596-0.704,1.029-0.704c0.704,0,1.137,0.542,1.137,1.191
		c0,0.921-1.733,4.55-5.633,4.55c-2.167,0-4.387-1.625-4.387-5.686c0-5.633,3.9-13.486,9.856-13.486
		C184.817,29.137,186.713,31.14,186.713,34.878z"/>
	<path fill="#1A1A1A" d="M202.633,41.647c0,0.921-0.758,1.083-1.083,1.029c-0.325-0.054-0.488-0.162-0.867-0.162
		c-1.029,0-1.3,0.812-1.3,1.57c0,1.3,1.571,2.6,3.52,2.6c1.95,0,4.008-1.137,4.008-3.574c0-1.3-0.65-2.817-3.087-4.116
		c-1.733-0.921-3.953-2.383-3.953-5.091c0-2.22,1.788-4.549,5.145-4.549c3.249,0,4.495,2.329,4.495,3.249
		c0,0.704-0.542,1.246-1.246,1.246c-0.325,0-0.867-0.271-0.975-0.705c-0.162-0.541-0.921-1.732-2.329-1.732
		c-1.733,0-2.708,1.083-2.708,2.491c0,1.029,0.487,1.679,2.654,2.979c2.654,1.57,4.441,3.141,4.441,5.903
		c0,3.358-2.382,5.849-6.499,5.849c-3.087,0-5.903-1.788-5.903-4.495c0-2.275,1.678-3.9,3.737-3.9
		C201.658,40.239,202.633,40.564,202.633,41.647z"/>
</g>
<ellipse fill="#1A1A1A" cx="247.116" cy="27.746" rx="17.431" ry="16.71"/>
<path fill="#1A1A1A" stroke="#FFFFFF" stroke-width="1.5" stroke-miterlimit="10" d="M241.491,33.672
	c-0.406,0.145-1.816,1.159-0.684,1.682C241.474,35.662,242.168,33.914,241.491,33.672c-3.747-1.337-3.54,3.452-1.484,4.324
	c2.546,1.08,3.863-0.652,4.703-2.337c1.998-4.006,3.577-8.273,4.447-12.366c0.265-1.247,2.034-6.269,0.379-7.416
	c-1.448,1.012-0.916,4.791-0.966,6.266c-0.061,1.803-0.071,3.284-0.069,5.133c0.002,2.011-0.086,3.576,0.187,5.795
	c0.205,1.669,0.157,4.173,0.365,5.739c-0.141-2.125-0.496-5.6-1.619-7.461c-0.823-1.364-5.473-5.3-6.863-2.589
	c-1.44,2.81,5.423,2.996,6.826,2.873c2.364-0.206,3.035-0.476,5.083-2.286"/>
<g>
	<path fill="#1A1A1A" d="M191.083,32.111c1.055-1.311,1.237-2.912,1.492-4.586c-0.692-0.328-0.909-0.51-1.492-0.583
		c-0.765-1.02-0.874-2.694,0-3.785c0.291-0.328,0.837-0.546,1.128-0.801c0.218-0.255,1.675-1.274,2.439-1.092
		c1.384,0.328,1.311,2.766,1.238,4.332c0,0.545-0.437,1.019-0.619,1.638c-0.073,0.291,0,0.982-0.255,1.492
		c-0.182,0.401-0.728,0.692-0.982,1.092c-0.328,0.545-0.255,1.092-0.473,1.346C193.266,31.528,192.028,32.838,191.083,32.111z"/>
</g>
</svg>
