<?xml version="1.0" encoding="utf-8"?>
<!-- Generator: Adobe Illustrator 17.0.0, SVG Export Plug-In . SVG Version: 6.00 Build 0)  -->
<!DOCTYPE svg PUBLIC "-//W3C//DTD SVG 1.1//EN" "http://www.w3.org/Graphics/SVG/1.1/DTD/svg11.dtd">
<svg version="1.1" id="Слой_1" xmlns="http://www.w3.org/2000/svg" xmlns:xlink="http://www.w3.org/1999/xlink" x="0px" y="0px"
	 width="532.5px" height="169px" viewBox="0 0 532.5 169" enable-background="new 0 0 532.5 169" xml:space="preserve">
<g>
	<path fill="#1A1A1A" d="M82.176,118.854v4.521c-3.152-1.545-6.051-2.317-8.698-2.317c-3.396,0-6.258,1.097-8.583,3.29
		c-2.326,2.193-3.488,4.887-3.488,8.081c0,3.256,1.189,5.973,3.568,8.15s5.359,3.267,8.939,3.267c2.601,0,5.354-0.817,8.262-2.455
		v4.566c-2.647,1.408-5.516,2.111-8.606,2.111c-4.529,0-8.399-1.532-11.612-4.598c-3.213-3.064-4.819-6.761-4.819-11.088
		c0-4.25,1.58-7.889,4.739-10.915c3.159-3.027,6.965-4.541,11.417-4.541C76.155,116.927,79.116,117.569,82.176,118.854z"/>
	<path fill="#1A1A1A" d="M93.338,128.148v3.902c0.887-1.561,1.756-2.689,2.604-3.386c0.85-0.695,1.955-1.044,3.316-1.044
		c0.382,0,0.933,0.092,1.652,0.275l-1.216,3.993c-0.765-0.152-1.27-0.229-1.515-0.229c-1.347,0-2.475,0.471-3.385,1.411
		c-0.91,0.941-1.365,2.115-1.365,3.522v10.488h-3.993v-18.934H93.338z"/>
	<path fill="#1A1A1A" d="M125.798,138.385h-16.156c0.352,1.942,1.151,3.361,2.398,4.257c1.247,0.895,2.604,1.343,4.073,1.343
		c2.264,0,4.161-0.941,5.691-2.823l2.915,2.203c-2.188,2.831-5.118,4.245-8.79,4.245c-2.815,0-5.171-0.963-7.068-2.891
		c-1.897-1.928-2.846-4.322-2.846-7.184c0-2.677,0.96-4.999,2.88-6.965s4.265-2.949,7.034-2.949c2.723,0,5.056,0.998,7,2.995
		C124.872,132.612,125.828,135.202,125.798,138.385z M110.055,135.194h11.566c-1.285-2.601-3.183-3.901-5.691-3.901
		C113.191,131.293,111.232,132.594,110.055,135.194z"/>
	<path fill="#1A1A1A" d="M148.687,128.148h3.993v18.934h-3.993v-3.764c-1.943,2.861-4.353,4.291-7.229,4.291
		c-2.494,0-4.624-0.979-6.392-2.938c-1.767-1.958-2.65-4.337-2.65-7.137c0-2.646,0.891-4.961,2.674-6.942
		c1.782-1.98,3.874-2.972,6.276-2.972c1.484,0,2.892,0.405,4.223,1.217c1.331,0.811,2.364,1.866,3.098,3.166V128.148z
		 M149.238,137.673c0-1.729-0.621-3.209-1.862-4.44c-1.242-1.231-2.728-1.848-4.46-1.848c-1.686,0-3.157,0.612-4.414,1.836
		c-1.257,1.225-1.885,2.662-1.885,4.314c0,1.79,0.613,3.313,1.839,4.566c1.226,1.255,2.713,1.883,4.46,1.883
		c1.732,0,3.219-0.624,4.46-1.871C148.617,140.867,149.238,139.387,149.238,137.673z"/>
	<path fill="#1A1A1A" d="M162.305,122.641h3.993v5.508h3.947v3.649h-3.947v15.284h-3.993v-15.284h-3.144v-3.694h3.144V122.641z"/>
	<path fill="#1A1A1A" d="M175.373,121.93c0-0.826,0.306-1.541,0.918-2.146c0.612-0.604,1.338-0.907,2.18-0.907
		c0.826,0,1.541,0.303,2.146,0.907c0.604,0.604,0.906,1.319,0.906,2.146c0,0.842-0.302,1.561-0.906,2.157
		c-0.605,0.597-1.32,0.896-2.146,0.896c-0.842,0-1.568-0.299-2.18-0.896C175.678,123.49,175.373,122.771,175.373,121.93z
		 M176.497,128.148h3.947v18.934h-3.947V128.148z"/>
	<path fill="#1A1A1A" d="M186.811,128.148h4.184l5.416,10.947l5.263-10.947h4.209l-9.535,19.645L186.811,128.148z"/>
	<path fill="#1A1A1A" d="M210.962,121.93c0-0.826,0.306-1.541,0.918-2.146c0.612-0.604,1.338-0.907,2.18-0.907
		c0.826,0,1.541,0.303,2.146,0.907c0.604,0.604,0.906,1.319,0.906,2.146c0,0.842-0.302,1.561-0.906,2.157
		c-0.605,0.597-1.32,0.896-2.146,0.896c-0.842,0-1.568-0.299-2.18-0.896C211.268,123.49,210.962,122.771,210.962,121.93z
		 M212.087,128.148h3.947v18.934h-3.947V128.148z"/>
	<path fill="#1A1A1A" d="M225.636,122.641h3.993v5.508h3.947v3.649h-3.947v15.284h-3.993v-15.284h-3.144v-3.694h3.144V122.641z"/>
	<path fill="#1A1A1A" d="M238.221,128.148h4.53l6.867,10.286l4.748-10.286h4.119l-12.79,27.814h-4.17l6.252-13.542L238.221,128.148z
		"/>
	<path fill="#1A1A1A" d="M279.869,121.93c0-0.826,0.306-1.541,0.918-2.146c0.611-0.604,1.339-0.907,2.18-0.907
		c0.826,0,1.542,0.303,2.146,0.907c0.604,0.604,0.906,1.319,0.906,2.146c0,0.842-0.303,1.561-0.906,2.157
		c-0.604,0.597-1.32,0.896-2.146,0.896c-0.841,0-1.568-0.299-2.18-0.896C280.175,123.49,279.869,122.771,279.869,121.93z
		 M280.994,128.148h3.947v18.934h-3.947V128.148z"/>
	<path fill="#1A1A1A" d="M304.687,130.398l-2.662,2.34c-0.688-0.489-1.285-0.86-1.79-1.112c-0.505-0.253-1.102-0.379-1.79-0.379
		c-1.622,0-2.433,0.597-2.433,1.79c0,0.857,1.028,1.688,3.087,2.496c2.058,0.807,3.537,1.691,4.44,2.654
		c0.902,0.963,1.354,2.125,1.354,3.484c0,1.59-0.65,2.977-1.95,4.161c-1.301,1.185-2.831,1.776-4.59,1.776
		c-2.678,0-4.873-1.238-6.587-3.717l3.145-1.516c1.102,1.071,2.249,1.607,3.442,1.607c0.826,0,1.549-0.226,2.169-0.678
		c0.619-0.451,0.93-0.975,0.93-1.572c0-1.055-1.087-2.005-3.26-2.848c-2.172-0.844-3.676-1.697-4.509-2.562
		c-0.834-0.863-1.251-1.93-1.251-3.199c0-1.575,0.593-2.886,1.778-3.934s2.674-1.571,4.464-1.571S302.468,128.547,304.687,130.398z"
		/>
	<path fill="#1A1A1A" d="M326.209,147.082v-18.934h3.947v2.915c0.933-1.193,1.824-2.065,2.674-2.616
		c0.849-0.551,1.824-0.826,2.926-0.826c1.438,0,2.566,0.313,3.385,0.941c0.818,0.627,1.511,1.629,2.077,3.006
		c0.998-1.377,1.962-2.379,2.892-3.006c0.929-0.628,2.008-0.941,3.237-0.941c1.505,0,2.803,0.563,3.894,1.687
		c1.091,1.125,1.636,2.46,1.636,4.005v13.77h-3.993v-12.736c0-2.097-1.036-3.145-3.107-3.145c-1.183,0-2.184,0.536-3.005,1.606
		c-0.821,1.071-1.231,2.395-1.231,3.97v10.305h-3.993v-12.209c0-2.479-1.018-3.718-3.052-3.718c-1.209,0-2.234,0.505-3.076,1.515
		c-0.841,1.01-1.262,2.257-1.262,3.74v10.672H326.209z"/>
	<path fill="#1A1A1A" d="M358.116,128.148h4.53l6.867,10.286l4.748-10.286h4.119l-12.789,27.814h-4.171l6.252-13.542
		L358.116,128.148z"/>
	<path fill="#1A1A1A" d="M401.051,117.294h3.993v29.788h-3.993V117.294z"/>
	<path fill="#1A1A1A" d="M412.42,121.93c0-0.826,0.306-1.541,0.918-2.146c0.611-0.604,1.339-0.907,2.18-0.907
		c0.826,0,1.542,0.303,2.146,0.907c0.604,0.604,0.906,1.319,0.906,2.146c0,0.842-0.303,1.561-0.906,2.157
		c-0.604,0.597-1.32,0.896-2.146,0.896c-0.841,0-1.568-0.299-2.18-0.896C412.726,123.49,412.42,122.771,412.42,121.93z
		 M413.545,128.148h3.947v18.934h-3.947V128.148z"/>
	<path fill="#1A1A1A" d="M437.237,117.592v4.039c-1.163-0.779-2.165-1.17-3.007-1.17c-0.703,0-1.254,0.26-1.652,0.778
		c-0.397,0.519-0.596,1.243-0.596,2.173v4.736h5.255v3.649h-5.255v15.284h-3.994v-15.284H424.5v-3.649h3.488v-4.466
		c0-2.152,0.555-3.87,1.664-5.153c1.109-1.282,2.59-1.924,4.441-1.924C435.012,116.605,436.059,116.935,437.237,117.592z"/>
	<path fill="#1A1A1A" d="M462.72,138.385h-16.156c0.352,1.942,1.151,3.361,2.398,4.257c1.246,0.895,2.604,1.343,4.073,1.343
		c2.264,0,4.161-0.941,5.691-2.823l2.915,2.203c-2.188,2.831-5.118,4.245-8.79,4.245c-2.815,0-5.172-0.963-7.068-2.891
		c-1.897-1.928-2.846-4.322-2.846-7.184c0-2.677,0.96-4.999,2.88-6.965s4.265-2.949,7.034-2.949c2.723,0,5.057,0.998,6.999,2.995
		C461.794,132.612,462.75,135.202,462.72,138.385z M446.977,135.194h11.566c-1.285-2.601-3.183-3.901-5.691-3.901
		C450.112,131.293,448.154,132.594,446.977,135.194z"/>
</g>
<g>
	<g>
		<path fill="#1A1A1A" d="M448.417,33.58v45.985h-3.466V68.12c-2.022,3.884-5.055,6.949-9.098,9.197
			c-4.045,2.248-8.378,3.373-12.997,3.373c-7.078,0-13.143-2.367-18.197-7.103c-5.055-4.734-7.582-10.406-7.582-17.015
			c0-6.607,2.527-12.279,7.582-17.014c5.054-4.735,11.119-7.103,18.197-7.103c4.62,0,9.044,1.16,13.268,3.475
			c4.224,2.317,7.165,5.382,8.827,9.196V33.58H448.417z M400.543,56.674c0,5.723,2.221,10.679,6.661,14.869
			c4.441,4.189,9.711,6.284,15.814,6.284c6.101,0,11.318-2.096,15.651-6.284c4.332-4.19,6.499-9.162,6.499-14.921
			c0-5.756-2.185-10.745-6.552-14.971c-4.37-4.224-9.586-6.336-15.652-6.336c-6.065,0-11.318,2.129-15.759,6.387
			C402.764,45.963,400.543,50.952,400.543,56.674z"/>
		<path fill="#1A1A1A" d="M422.855,81.189c-7.177,0-13.414-2.436-18.538-7.237c-5.136-4.81-7.74-10.657-7.74-17.38
			c0-6.721,2.604-12.568,7.74-17.379c5.126-4.803,11.363-7.238,18.538-7.238c4.682,0,9.227,1.19,13.509,3.537
			c3.587,1.968,6.299,4.501,8.087,7.551V33.08h4.466v46.985h-4.466V69.99c-2.025,3.196-4.829,5.803-8.355,7.764
			C431.994,80.034,427.54,81.189,422.855,81.189z M422.855,32.955c-6.912,0-12.92,2.345-17.854,6.969
			c-4.926,4.613-7.424,10.215-7.424,16.648c0,6.435,2.498,12.037,7.424,16.649c4.934,4.624,10.94,6.968,17.854,6.968
			c4.512,0,8.804-1.113,12.754-3.31c3.938-2.189,6.932-5.214,8.898-8.99l0.943-1.813v12.988h2.466V34.08h-2.466v13.446l-0.958-2.199
			c-1.609-3.694-4.506-6.708-8.609-8.958C431.75,34.104,427.367,32.955,422.855,32.955z M423.018,78.328
			c-6.203,0-11.639-2.16-16.156-6.421c-4.524-4.269-6.818-9.395-6.818-15.232c0-5.836,2.293-10.994,6.815-15.332
			c4.517-4.33,9.936-6.525,16.105-6.525s11.553,2.179,15.999,6.476c4.448,4.305,6.704,9.462,6.704,15.33
			c0,5.87-2.237,11.012-6.65,15.28C434.606,76.167,429.224,78.328,423.018,78.328z M422.964,35.817
			c-5.903,0-11.09,2.102-15.414,6.248c-4.317,4.141-6.507,9.057-6.507,14.609c0,5.552,2.188,10.433,6.504,14.506
			c4.326,4.079,9.531,6.147,15.471,6.147c5.938,0,11.087-2.067,15.304-6.144c4.211-4.073,6.346-8.973,6.346-14.562
			c0-5.587-2.153-10.503-6.399-14.611C434.015,37.901,428.866,35.817,422.964,35.817z"/>
	</g>
	<g>
		<path fill="#1A1A1A" d="M468.746,48.195c-2.663,0-5.01,0.949-7.045,2.844c-2.033,1.895-3.051,4.099-3.051,6.61v21.325h-2.411
			V46.987h2.411v4.762c0.904-1.61,2.309-2.936,4.219-3.979c1.908-1.043,4.043-1.565,6.404-1.565c2.361,0,4.621,0.76,6.781,2.275
			v2.844C473.843,49.238,471.408,48.195,468.746,48.195z"/>
		<path fill="#1A1A1A" d="M459.65,79.975h-4.411V45.987h4.411v2.879c0.777-0.741,1.692-1.401,2.739-1.974
			c2.049-1.119,4.365-1.688,6.884-1.688c2.556,0,5.03,0.826,7.354,2.456l0.426,0.298v5.684l-1.687-1.591
			c-2.037-1.922-4.203-2.856-6.621-2.856c-2.421,0-4.503,0.843-6.363,2.576c-1.839,1.714-2.732,3.637-2.732,5.879V79.975z
			 M457.239,77.975h0.411V57.65c0-0.983,0.141-1.928,0.422-2.829l-0.422,0.751v-7.585h-0.411V77.975z M469.213,47.205
			c2.073,0.088,4.029,0.765,5.841,2.019v-0.212C473.181,47.801,471.245,47.151,469.213,47.205z"/>
	</g>
	<g>
		<path fill="#1A1A1A" d="M496.266,75.746v1.991c-3.567,0-6.605-1.126-9.116-3.377c-2.513-2.249-3.767-5.128-3.767-8.635V32.455
			h2.411v12.938h10.397v1.991h-10.397v18.34c0,2.889,1.017,5.284,3.052,7.178C490.879,74.798,493.352,75.746,496.266,75.746z"/>
		<path fill="#1A1A1A" d="M497.266,78.736h-1c-3.803,0-7.094-1.222-9.783-3.632c-2.721-2.436-4.1-5.592-4.1-9.381V31.455h4.41
			v12.938h10.397v3.991h-10.397v17.34c0,2.625,0.894,4.733,2.733,6.445c1.859,1.733,4.063,2.576,6.739,2.576h1V78.736z
			 M484.383,33.455v32.269c0,3.24,1.123,5.822,3.434,7.891c2,1.792,4.305,2.799,7.013,3.056c-2.557-0.273-4.794-1.292-6.666-3.037
			c-2.236-2.081-3.37-4.742-3.37-7.909V33.455H484.383z"/>
	</g>
</g>
<g>
	<path fill="#1A1A1A" d="M81.447,68.313c0,9.738-5.46,13.833-10.283,13.833c-1.911,0-3.731-0.637-4.914-1.911
		c-2.185-2.275-3.186-6.098-3.186-12.376c0-3.095,0.547-9.465,1.365-18.201c-4.186-2.002-9.191-3.003-14.561-3.003
		c-2.729,0-5.278,0.272-7.645,0.637c-1.547,5.369-2.457,11.376-2.729,16.199c6.097,0.182,12.013-2.64,12.013-7.463
		c0-1.183,0.728-2.002,1.911-2.002c1.092,0,2.002,0.819,2.002,2.002c0,6.825-7.28,11.376-16.017,11.193
		c0,5.278,0.818,9.191,2.002,10.83c0.364,0.363,0.546,0.818,0.546,1.273c0,1.092-0.91,2.002-2.093,2.002
		c-2.549,0-4.551-5.46-4.46-14.561c-6.643-1.365-9.646-5.278-9.646-9.828c0-6.006,5.187-10.557,13.286-12.74
		c3.64-11.558,9.828-21.75,18.747-21.75c3.003,0,5.369,0.91,7.098,2.73c2.821,2.729,4.096,7.644,4.096,15.197
		c0,2.275-0.092,4.641-0.364,7.189C77.079,52.388,81.447,60.214,81.447,68.313z M29.849,56.938c0,2.73,1.456,4.914,5.643,6.098
		c0.182-4.096,1.183-9.829,2.457-14.561C33.762,50.021,29.849,52.934,29.849,56.938z M43.681,43.287
		c1.911-0.273,4.005-0.455,6.188-0.455c5.369,0,10.375,1.001,14.834,2.821c0.182-1.82,0.272-3.641,0.272-5.369
		c0-6.279-1.001-10.466-3.003-12.468c-1.001-1.001-2.366-1.638-4.186-1.638C51.689,26.179,46.957,33.914,43.681,43.287z
		 M71.346,78.506c3.731,0,6.098-4.551,6.098-10.193c0-7.007-3.731-12.922-9.101-16.563c-0.546,5.278-1.273,12.468-1.273,16.108
		C67.069,73.773,67.888,78.506,71.346,78.506z"/>
	<path fill="#1A1A1A" d="M113.022,62.397c0,6.37-1.456,13.56-2.093,16.654c-0.273,1.819-1.729,1.819-2.003,1.819
		c-1.183,0-2.093-0.91-2.093-2.093c0-0.091,0-0.182,0.091-0.364c0.729-3.185,2.002-10.102,2.002-16.017
		c0-4.823-0.909-8.281-3.275-8.281c-4.914,0-10.738,10.283-13.65,25.299c-0.183,0.91-0.91,1.548-1.911,1.548
		c-1.184,0-1.911-0.91-1.911-2.094c0-1.092,1.638-7.735,2.002-9.191c1.001-4.095,1.82-8.099,1.911-11.193
		c-0.091-2.729-0.455-4.277-1.639-5.46c-0.272-0.455-0.455-0.91-0.455-1.456c0-1.001,0.91-1.911,2.003-1.911
		c1.819,0,4.276,3.367,3.913,8.827c2.457-5.642,6.006-8.554,10.101-8.554C108.108,49.931,113.022,51.204,113.022,62.397z"/>
	<path fill="#1A1A1A" d="M145.873,58.849c0,3.458-0.547,7.462-1.184,10.921c-0.364,2.365-0.91,5.46-0.91,7.279
		c0,0.547,0.091,0.91,0.183,1.184c0.182,0.364,0.363,0.637,0.363,1.092c0,1.001-1.001,1.911-2.093,1.911
		c-2.002,0-2.548-2.548-2.548-4.368c0-1.911,0.546-4.459,1.001-7.735c0.546-3.367,1.183-6.916,1.183-10.102
		c0-4.368-2.366-6.006-4.731-6.006c-6.917,0-12.104,10.557-12.104,18.838c0,3.367,1.547,5.733,3.913,5.733
		c2.457,0,4.276-2.185,5.187-4.642c0.273-0.728,1.001-1.183,1.729-1.183c1.183,0,1.911,0.91,1.911,2.002
		c0,1.547-2.912,7.645-9.465,7.645c-3.64,0-7.371-2.73-7.371-9.556c0-9.465,6.553-22.66,16.563-22.66
		C142.687,49.202,145.873,52.569,145.873,58.849z"/>
	<path fill="#1A1A1A" d="M161.705,70.224c0,1.548-1.274,1.82-1.82,1.729s-0.819-0.273-1.456-0.273c-1.729,0-2.184,1.365-2.184,2.64
		c0,2.184,2.639,4.368,5.915,4.368s6.734-1.911,6.734-6.006c0-2.185-1.092-4.732-5.188-6.917c-2.912-1.547-6.644-4.004-6.644-8.554
		c0-3.731,3.004-7.645,8.646-7.645c5.461,0,7.554,3.913,7.554,5.46c0,1.184-0.91,2.093-2.093,2.093
		c-0.547,0-1.456-0.455-1.639-1.183c-0.272-0.91-1.547-2.912-3.913-2.912c-2.912,0-4.55,1.82-4.55,4.187
		c0,1.729,0.818,2.82,4.459,5.005c4.459,2.639,7.462,5.278,7.462,9.919c0,5.643-4.004,9.829-10.92,9.829
		c-5.188,0-9.92-3.004-9.92-7.554c0-3.822,2.821-6.552,6.279-6.552C160.067,67.858,161.705,68.404,161.705,70.224z"/>
	<path fill="#1A1A1A" d="M190.369,81.6c-0.091,0-0.546-0.091-0.637-0.091c-4.55-0.729-6.734-4.46-6.734-11.467
		c0-4.368,0.546-9.464,2.275-16.381c-2.64,0-3.641,0.455-4.914,0.455c-0.638,0-1.274-0.546-1.274-1.547
		c0-2.548,3.822-2.639,7.099-2.73c0.728-3.003,1.82-7.188,2.821-10.829c0.272-0.819,1.001-1.365,1.819-1.456
		c1.184,0,2.094,0.729,2.094,1.82c0,0.364-0.092,0.819-0.183,1.001c-0.91,2.73-2.093,7.553-2.548,9.556
		c1.274,0,3.094,0.091,5.551,0.182c1.002,0.182,2.003,0.91,2.003,1.911c0,1.092-0.729,1.82-1.729,1.82
		c-1.729,0-4.823-0.183-6.553-0.273c-1.638,5.824-2.457,11.558-2.457,16.199c0,7.188,2.64,7.644,3.55,7.826
		c1.001,0,1.819,0.91,1.819,1.911C192.371,80.599,191.462,81.509,190.369,81.6z"/>
	<path fill="#1A1A1A" d="M225.132,58.849c0,3.458-0.546,7.462-1.184,10.921c-0.363,2.365-0.91,5.46-0.91,7.279
		c0,0.547,0.092,0.91,0.183,1.184c0.182,0.364,0.364,0.637,0.364,1.092c0,1.001-1.001,1.911-2.094,1.911
		c-2.002,0-2.548-2.548-2.548-4.368c0-1.911,0.546-4.459,1.001-7.735c0.546-3.367,1.183-6.916,1.183-10.102
		c0-4.368-2.365-6.006-4.731-6.006c-6.917,0-12.104,10.557-12.104,18.838c0,3.367,1.547,5.733,3.913,5.733
		c2.457,0,4.277-2.185,5.188-4.642c0.272-0.728,1.001-1.183,1.729-1.183c1.184,0,1.911,0.91,1.911,2.002
		c0,1.547-2.912,7.645-9.464,7.645c-3.641,0-7.372-2.73-7.372-9.556c0-9.465,6.553-22.66,16.563-22.66
		C221.946,49.202,225.132,52.569,225.132,58.849z"/>
	<path fill="#1A1A1A" d="M240.964,70.224c0,1.548-1.274,1.82-1.82,1.729s-0.819-0.273-1.456-0.273c-1.729,0-2.185,1.365-2.185,2.64
		c0,2.184,2.64,4.368,5.916,4.368c3.275,0,6.733-1.911,6.733-6.006c0-2.185-1.092-4.732-5.187-6.917
		c-2.912-1.547-6.644-4.004-6.644-8.554c0-3.731,3.003-7.645,8.646-7.645c5.46,0,7.553,3.913,7.553,5.46
		c0,1.184-0.909,2.093-2.093,2.093c-0.546,0-1.456-0.455-1.638-1.183c-0.273-0.91-1.547-2.912-3.913-2.912
		c-2.912,0-4.551,1.82-4.551,4.187c0,1.729,0.819,2.82,4.459,5.005c4.46,2.639,7.463,5.278,7.463,9.919
		c0,5.643-4.004,9.829-10.921,9.829c-5.187,0-9.919-3.004-9.919-7.554c0-3.822,2.821-6.552,6.279-6.552
		C239.325,67.858,240.964,68.404,240.964,70.224z"/>
	<path fill="#1A1A1A" d="M268.081,52.479c0,0.091,0,0.272-0.091,0.455c-1.638,6.552-3.367,18.383-3.913,27.027
		c-0.091,1.093-0.91,1.911-2.002,1.911c-1.184,0-2.093-0.909-2.093-2.093c0-1.183,1.364-17.018,4.095-27.847
		c0.182-1.093,1.365-1.729,2.457-1.456C267.444,50.749,268.081,51.568,268.081,52.479z M272.268,38.646l-3.641,2.549l5.552,3.549
		l-6.734-1.092l-2.548,5.005l0.091-5.278l-4.551-0.364l4.46-2.548l-0.455-4.187l2.729,3.004L272.268,38.646z"/>
	<path fill="#1A1A1A" d="M281.548,52.388c-0.728,3.913-2.002,10.374-2.002,16.198c0,2.639,0.364,8.463,3.458,8.463
		c5.551,0,12.377-14.196,12.285-25.207c0-1.093,1.001-1.911,2.094-1.911c1.092,0,1.819,0.909,1.819,2.002
		c0,4.095-0.637,13.014-0.909,17.29c-0.273,3.822-0.91,11.285-3.276,19.111c3.003,1.729,5.278,4.732,5.278,8.19
		c0,1.092-0.91,2.002-2.002,2.002c-1.093,0-1.911-0.91-1.911-2.002c0-2.549-2.003-3.913-2.821-4.277
		c-4.004,10.283-12.923,16.835-21.021,16.835c-4.46,0-8.464-2.184-8.464-7.734c0-9.374,11.739-15.289,21.295-15.289
		c2.093,0,4.187,0.273,5.824,0.819c1.456-4.551,2.821-11.922,3.367-17.473c-2.275,6.37-7.099,11.648-11.558,11.648
		c-5.643,0-7.553-6.098-7.553-12.468c0-6.279,1.364-13.195,2.002-16.563c0.182-0.637,0.455-2.093,2.184-2.093
		c1.092,0,2.002,0.909,2.002,2.093L281.548,52.388z M290.103,90.336c-1.274-0.364-3.186-0.546-4.732-0.546
		c-7.554,0-17.2,4.823-17.2,11.284c0,2.912,2.458,4.277,4.915,4.277C279.364,105.352,286.553,99.437,290.103,90.336z"/>
	<path fill="#1A1A1A" d="M330.87,58.849c0,3.458-0.546,7.462-1.184,10.921c-0.363,2.365-0.91,5.46-0.91,7.279
		c0,0.547,0.092,0.91,0.183,1.184c0.182,0.364,0.364,0.637,0.364,1.092c0,1.001-1.001,1.911-2.094,1.911
		c-2.002,0-2.548-2.548-2.548-4.368c0-1.911,0.546-4.459,1.001-7.735c0.546-3.367,1.183-6.916,1.183-10.102
		c0-4.368-2.365-6.006-4.731-6.006c-6.917,0-12.104,10.557-12.104,18.838c0,3.367,1.547,5.733,3.913,5.733
		c2.457,0,4.277-2.185,5.188-4.642c0.272-0.728,1.001-1.183,1.729-1.183c1.184,0,1.911,0.91,1.911,2.002
		c0,1.547-2.912,7.645-9.464,7.645c-3.641,0-7.372-2.73-7.372-9.556c0-9.465,6.553-22.66,16.563-22.66
		C327.685,49.202,330.87,52.569,330.87,58.849z"/>
	<path fill="#1A1A1A" d="M357.413,70.224c0,1.548-1.274,1.82-1.82,1.729s-0.819-0.273-1.456-0.273c-1.729,0-2.185,1.365-2.185,2.64
		c0,2.184,2.64,4.368,5.916,4.368c3.275,0,6.733-1.911,6.733-6.006c0-2.185-1.092-4.732-5.187-6.917
		c-2.912-1.547-6.644-4.004-6.644-8.554c0-3.731,3.003-7.645,8.646-7.645c5.46,0,7.553,3.913,7.553,5.46
		c0,1.184-0.909,2.093-2.093,2.093c-0.546,0-1.456-0.455-1.638-1.183c-0.273-0.91-1.547-2.912-3.913-2.912
		c-2.912,0-4.551,1.82-4.551,4.187c0,1.729,0.819,2.82,4.459,5.005c4.46,2.639,7.463,5.278,7.463,9.919
		c0,5.643-4.004,9.829-10.921,9.829c-5.187,0-9.919-3.004-9.919-7.554c0-3.822,2.821-6.552,6.279-6.552
		C355.774,67.858,357.413,68.404,357.413,70.224z"/>
</g>
<g>
	<ellipse fill="#1A1A1A" cx="420.121" cy="57.822" rx="19.634" ry="18.822"/>
</g>
<g>
	<path fill="#FFFFFF" d="M413.804,70.503c-0.589,0-1.248-0.132-1.983-0.443c-1.801-0.764-2.497-3.313-1.872-4.916
		c0.466-1.192,1.781-2.177,4.089-1.352c0.428,0.152,0.716,0.52,0.791,1.008c0.11,0.726-0.272,1.672-0.854,2.109
		c-0.395,0.297-0.858,0.357-1.273,0.164c-0.865-0.399-0.932-1.055-0.92-1.318c0.012-0.255,0.099-0.494,0.23-0.714
		c-0.313,0.099-0.534,0.314-0.665,0.648c-0.397,1.018,0.168,2.61,1.061,2.989c1.879,0.798,3.131,0.135,4.334-2.277
		c0.573-1.148,1.109-2.305,1.605-3.462c-2.128-0.102-5.204-0.518-6.221-2.027c-0.314-0.469-0.578-1.246-0.043-2.288
		c0.47-0.918,1.25-1.421,2.258-1.456c1.675-0.063,3.817,1.303,5.263,2.615c0.506-1.38,0.951-2.75,1.331-4.097
		c0.006-1.438,0.025-2.719,0.075-4.2c0.012-0.333-0.006-0.775-0.024-1.276c-0.081-2.209-0.192-5.235,1.433-6.371l0.428-0.299
		l0.429,0.298c1.839,1.274,1.032,4.881,0.132,8.162c-0.112,0.407-0.42,0.741-0.468,0.964c-0.204,0.961,0.063,1.939-0.937,2.932
		c0,0.446,0,0.908,0,1.397c0,0.47,0.213,0.919,0.209,1.356c-0.008,0.863,0.093,1.666,0.121,2.504
		c1.017-0.276,1.839-0.812,3.282-2.088l1.021,1.123c-1.709,1.511-2.652,2.147-4.121,2.479c0.028,0.34,0.072,0.692,0.117,1.062
		c0.118,0.961,0.167,2.15,0.211,3.3c0.02,0.492,0.04,0.992,0.065,1.47c0.056,0.554,0.104,1.133,0.144,1.737l-1.491,0.148
		c-0.07-0.526-0.115-1.143-0.149-1.79c-0.251-2.474-0.659-4.359-1.219-5.634c-0.066,0.002-0.143,0.003-0.228,0.005
		c-0.574,1.372-1.202,2.744-1.882,4.105C417.615,68.008,416.37,70.503,413.804,70.503z M414.454,58.5c-0.021,0-0.042,0-0.063,0
		c-0.456,0-0.756,0.297-0.975,0.724c-0.243,0.475-0.11,0.714-0.047,0.808c0.643,0.956,3.55,1.371,5.581,1.428
		c0.023-0.059,0.047-0.19,0.069-0.248C417.845,60.048,415.812,58.5,414.454,58.5z M420.755,60.983
		c0.067,0.083,0.129,0.163,0.185,0.24c-0.008-0.232-0.013-0.461-0.016-0.688C420.868,60.685,420.812,60.834,420.755,60.983z
		 M422.806,45.745c-0.382,0.979-0.378,2.643-0.341,3.864C422.768,48.261,423.024,46.675,422.806,45.745z"/>
</g>
<g>
	<path fill="#1A1A1A" d="M340.332,53.324c1.653-2.053,1.938-4.561,2.338-7.183c-1.083-0.514-1.426-0.799-2.338-0.912
		c-1.196-1.597-1.367-4.219,0-5.93c0.457-0.513,1.312-0.854,1.768-1.254c0.342-0.398,2.622-1.995,3.819-1.71
		c2.167,0.513,2.053,4.333,1.938,6.784c0,0.854-0.684,1.596-0.969,2.564c-0.114,0.457,0,1.54-0.399,2.338
		c-0.285,0.627-1.14,1.083-1.539,1.71c-0.513,0.855-0.399,1.71-0.741,2.109C343.753,52.412,341.814,54.464,340.332,53.324z"/>
</g>
<g>
	<rect x="13" y="100.5" fill="#1A1A1A" width="226" height="2"/>
</g>
<g>
	<rect x="324" y="100.5" fill="#1A1A1A" width="197" height="2"/>
</g>
</svg>
